<svg xmlns="http://www.w3.org/2000/svg" viewBox="0 0 920 720" role="img" aria-label="Ilustrasi roti mix">
  <defs>
    <linearGradient id="cream" x1="0" x2="1" y1="0" y2="1">
      <stop offset="0" stop-color="#fffaf1"/>
      <stop offset="1" stop-color="#f8d49a"/>
    </linearGradient>
    <linearGradient id="caramel" x1="0" x2="1" y1="0" y2="1">
      <stop offset="0" stop-color="#f4bb63"/>
      <stop offset=".55" stop-color="#c76b2a"/>
      <stop offset="1" stop-color="#5f2815"/>
    </linearGradient>
    <linearGradient id="choco" x1="0" x2="1" y1="0" y2="1">
      <stop offset="0" stop-color="#6b3a20"/>
      <stop offset="1" stop-color="#24130b"/>
    </linearGradient>
    <filter id="softShadow" x="-20%" y="-20%" width="140%" height="140%">
      <feDropShadow dx="0" dy="26" stdDeviation="22" flood-color="#5f2815" flood-opacity=".2"/>
    </filter>
  </defs>
  <rect width="920" height="720" fill="url(#cream)"/>
  <circle cx="114" cy="110" r="130" fill="#fff" opacity=".45"/>
  <circle cx="815" cy="612" r="190" fill="#c76b2a" opacity=".16"/>
  <circle cx="780" cy="130" r="70" fill="#5f2815" opacity=".08"/>
  <g filter="url(#softShadow)">
    <ellipse cx="460" cy="575" rx="310" ry="64" fill="#3d2415" opacity=".17"/>
    <path d="M184 454c0-148 119-268 266-268h45c147 0 266 120 266 268 0 47-38 85-85 85H269c-47 0-85-38-85-85Z" fill="url(#caramel)"/>
    <path d="M278 270c-44 58-66 120-64 188" stroke="#fff4df" stroke-linecap="round" stroke-width="24" opacity=".35"/>
    <path d="M443 223c-37 76-52 154-42 231" stroke="#fff4df" stroke-linecap="round" stroke-width="24" opacity=".35"/>
    <path d="M610 265c42 57 63 121 60 193" stroke="#fff4df" stroke-linecap="round" stroke-width="24" opacity=".35"/>
  </g>
  <g filter="url(#softShadow)">
    <rect x="113" y="92" width="178" height="130" rx="36" fill="#fffaf1" opacity=".92"/>
    <path d="M156 158c8-31 38-54 73-48 35 6 57 40 48 74H164c-8 0-12-13-8-26Z" fill="url(#caramel)"/>
    <circle cx="175" cy="137" r="9" fill="#5f2815" opacity=".75"/>
    <circle cx="219" cy="129" r="9" fill="#5f2815" opacity=".75"/>
  </g>
  <g filter="url(#softShadow)">
    <rect x="636" y="92" width="172" height="128" rx="34" fill="#fffaf1" opacity=".9"/>
    <circle cx="704" cy="156" r="42" fill="url(#choco)"/>
    <circle cx="747" cy="156" r="42" fill="#c76b2a"/>
    <circle cx="725" cy="126" r="6" fill="#fff4df" opacity=".7"/>
  </g>
</svg>
