<svg xmlns="http://www.w3.org/2000/svg" viewBox="0 0 900 620" role="img" aria-label="Ilustrasi roti">
  <defs>
    <linearGradient id="bg" x1="0" x2="1" y1="0" y2="1">
      <stop offset="0" stop-color="#fff7e8"/>
      <stop offset="1" stop-color="#f4c77c"/>
    </linearGradient>
    <linearGradient id="bread" x1="0" x2="1" y1="0" y2="1">
      <stop offset="0" stop-color="#f7d08a"/>
      <stop offset="0.55" stop-color="#c76b2a"/>
      <stop offset="1" stop-color="#5f2815"/>
    </linearGradient>
    <filter id="shadow" x="-20%" y="-20%" width="140%" height="140%">
      <feDropShadow dx="0" dy="24" stdDeviation="22" flood-color="#5f2815" flood-opacity=".22"/>
    </filter>
  </defs>
  <rect width="900" height="620" fill="url(#bg)"/>
  <circle cx="130" cy="110" r="110" fill="#fffaf1" opacity=".45"/>
  <circle cx="780" cy="510" r="150" fill="#8d3f18" opacity=".12"/>
  <g filter="url(#shadow)">
    <ellipse cx="450" cy="420" rx="280" ry="70" fill="#3d2415" opacity=".16"/>
    <path d="M214 365c0-111 93-202 207-202h60c114 0 207 91 207 202 0 33-27 60-60 60H274c-33 0-60-27-60-60Z" fill="url(#bread)"/>
    <path d="M313 225c-30 40-47 88-47 140" fill="none" stroke="#fff3dd" stroke-width="18" stroke-linecap="round" opacity=".35"/>
    <path d="M448 204c-24 48-34 97-30 150" fill="none" stroke="#fff3dd" stroke-width="18" stroke-linecap="round" opacity=".35"/>
    <path d="M579 229c28 38 43 82 43 133" fill="none" stroke="#fff3dd" stroke-width="18" stroke-linecap="round" opacity=".35"/>
  </g>
  <text x="450" y="520" text-anchor="middle" font-family="Arial, sans-serif" font-size="38" font-weight="800" fill="#3d2415">Roti Mix</text>
</svg>
